<mxfile host="app.diagrams.net" modified="2023-10-21T02:47:59.752Z" agent="Mozilla/5.0 (Windows NT 10.0; Win64; x64) AppleWebKit/537.36 (KHTML, like Gecko) Chrome/118.0.0.0 Safari/537.36 Edg/118.0.2088.57" etag="hJu5NoLr0IFX_b7JSe3W" version="22.0.6" type="google" pages="3">
  <diagram name="Login" id="3p6ON6EloUpElWFCBeML">
    <mxGraphModel grid="1" page="1" gridSize="10" guides="1" tooltips="1" connect="1" arrows="1" fold="1" pageScale="1" pageWidth="827" pageHeight="1169" math="0" shadow="0">
      <root>
        <mxCell id="0" />
        <mxCell id="1" parent="0" />
        <mxCell id="HWMM1_5PJMDNuO5PTNmh-90" value=":userController" style="shape=umlLifeline;perimeter=lifelinePerimeter;whiteSpace=wrap;html=1;container=1;collapsible=0;recursiveResize=0;outlineConnect=0;rounded=1;shadow=0;comic=0;labelBackgroundColor=none;strokeWidth=1;fontFamily=Verdana;fontSize=12;align=center;fillColor=#FAE5C7;strokeColor=#0F8B8D;fontColor=#143642;" vertex="1" parent="1">
          <mxGeometry x="550" y="750" width="200" height="850" as="geometry" />
        </mxCell>
        <mxCell id="HWMM1_5PJMDNuO5PTNmh-106" value="" style="html=1;points=[];perimeter=orthogonalPerimeter;rounded=1;shadow=0;comic=0;labelBackgroundColor=none;strokeWidth=1;fontFamily=Verdana;fontSize=12;align=center;fillColor=#FAE5C7;strokeColor=#0F8B8D;fontColor=#143642;" vertex="1" parent="HWMM1_5PJMDNuO5PTNmh-90">
          <mxGeometry x="95" y="95" width="10" height="715" as="geometry" />
        </mxCell>
        <mxCell id="HWMM1_5PJMDNuO5PTNmh-74" value=": Login-ForgotpasswordScreen" style="shape=umlLifeline;perimeter=lifelinePerimeter;whiteSpace=wrap;html=1;container=1;collapsible=0;recursiveResize=0;outlineConnect=0;rounded=1;shadow=0;comic=0;labelBackgroundColor=none;strokeWidth=1;fontFamily=Verdana;fontSize=12;align=center;movable=1;resizable=1;rotatable=1;deletable=1;editable=1;locked=0;connectable=1;fillColor=#FAE5C7;strokeColor=#0F8B8D;fontColor=#143642;" vertex="1" parent="1">
          <mxGeometry x="120" y="750" width="190" height="840" as="geometry" />
        </mxCell>
        <mxCell id="HWMM1_5PJMDNuO5PTNmh-79" value="" style="html=1;points=[];perimeter=orthogonalPerimeter;rounded=1;shadow=0;comic=0;labelBackgroundColor=none;strokeWidth=1;fontFamily=Verdana;fontSize=12;align=center;fillColor=#FAE5C7;strokeColor=#0F8B8D;fontColor=#143642;" vertex="1" parent="HWMM1_5PJMDNuO5PTNmh-74">
          <mxGeometry x="90" y="90" width="10" height="230" as="geometry" />
        </mxCell>
        <mxCell id="HWMM1_5PJMDNuO5PTNmh-86" value="User" style="shape=umlLifeline;perimeter=lifelinePerimeter;whiteSpace=wrap;html=1;container=1;collapsible=0;recursiveResize=0;outlineConnect=0;rounded=1;shadow=0;comic=0;labelBackgroundColor=none;strokeWidth=1;fontFamily=Verdana;fontSize=12;align=center;fillColor=#FAE5C7;strokeColor=#0F8B8D;fontColor=#143642;" vertex="1" parent="1">
          <mxGeometry x="-80" y="750" width="100" height="850" as="geometry" />
        </mxCell>
        <mxCell id="HWMM1_5PJMDNuO5PTNmh-88" value="" style="html=1;points=[];perimeter=orthogonalPerimeter;rounded=1;shadow=0;comic=0;labelBackgroundColor=none;strokeWidth=1;fontFamily=Verdana;fontSize=12;align=center;fillColor=#FAE5C7;strokeColor=#0F8B8D;fontColor=#143642;" vertex="1" parent="HWMM1_5PJMDNuO5PTNmh-86">
          <mxGeometry x="45" y="90" width="10" height="720" as="geometry" />
        </mxCell>
        <mxCell id="HWMM1_5PJMDNuO5PTNmh-89" value="onViewLogin()" style="html=1;verticalAlign=bottom;endArrow=block;entryX=0;entryY=0;labelBackgroundColor=none;fontFamily=Verdana;fontSize=12;edgeStyle=elbowEdgeStyle;elbow=vertical;exitX=0.924;exitY=-0.001;exitDx=0;exitDy=0;exitPerimeter=0;strokeColor=#A8201A;fontColor=default;rounded=1;" edge="1" parent="1" source="HWMM1_5PJMDNuO5PTNmh-88" target="HWMM1_5PJMDNuO5PTNmh-79">
          <mxGeometry relative="1" as="geometry">
            <mxPoint x="-20" y="840" as="sourcePoint" />
          </mxGeometry>
        </mxCell>
        <mxCell id="HWMM1_5PJMDNuO5PTNmh-92" value="login(userName,passWord)" style="html=1;verticalAlign=bottom;endArrow=block;labelBackgroundColor=none;fontFamily=Verdana;fontSize=12;edgeStyle=elbowEdgeStyle;elbow=vertical;strokeColor=#A8201A;fontColor=default;rounded=1;" edge="1" parent="1" source="HWMM1_5PJMDNuO5PTNmh-79" target="HWMM1_5PJMDNuO5PTNmh-90">
          <mxGeometry x="-0.0725" relative="1" as="geometry">
            <mxPoint x="460" y="860.34" as="sourcePoint" />
            <mxPoint x="725" y="860.0033333333334" as="targetPoint" />
            <mxPoint as="offset" />
            <Array as="points">
              <mxPoint x="334" y="870" />
              <mxPoint x="560" y="850" />
            </Array>
          </mxGeometry>
        </mxCell>
        <mxCell id="LBKUKaVi9UjOXz--Ojkw-5" value="verifyAccount(userName,passWord)" style="html=1;verticalAlign=bottom;endArrow=block;labelBackgroundColor=none;fontFamily=Verdana;fontSize=12;edgeStyle=elbowEdgeStyle;elbow=vertical;strokeColor=#A8201A;fontColor=default;rounded=1;" edge="1" parent="1" target="HWMM1_5PJMDNuO5PTNmh-77">
          <mxGeometry x="0.0213" relative="1" as="geometry">
            <mxPoint x="650" y="879" as="sourcePoint" />
            <mxPoint x="713" y="879" as="targetPoint" />
            <mxPoint as="offset" />
            <Array as="points">
              <mxPoint x="700" y="879" />
              <mxPoint x="809" y="859" />
            </Array>
          </mxGeometry>
        </mxCell>
        <mxCell id="LBKUKaVi9UjOXz--Ojkw-4" value="submit(userName,passWord)" style="html=1;verticalAlign=bottom;endArrow=block;labelBackgroundColor=none;fontFamily=Verdana;fontSize=12;edgeStyle=elbowEdgeStyle;elbow=vertical;strokeColor=#A8201A;fontColor=default;rounded=1;" edge="1" parent="1" target="HWMM1_5PJMDNuO5PTNmh-79">
          <mxGeometry x="-0.0028" relative="1" as="geometry">
            <mxPoint x="-30" y="870" as="sourcePoint" />
            <mxPoint x="195" y="869" as="targetPoint" />
            <mxPoint as="offset" />
          </mxGeometry>
        </mxCell>
        <mxCell id="HWMM1_5PJMDNuO5PTNmh-75" value="alt" style="shape=umlFrame;whiteSpace=wrap;html=1;pointerEvents=0;fontFamily=Verdana;labelBackgroundColor=none;fillColor=#FAE5C7;strokeColor=#0F8B8D;fontColor=#143642;rounded=1;" vertex="1" parent="1">
          <mxGeometry x="-140" y="914" width="1050" height="220" as="geometry" />
        </mxCell>
        <mxCell id="HWMM1_5PJMDNuO5PTNmh-97" value="[Login fail]" style="text;html=1;align=center;verticalAlign=middle;resizable=0;points=[];autosize=1;strokeColor=none;fillColor=none;fontFamily=Verdana;labelBackgroundColor=none;fontColor=#143642;rounded=1;" vertex="1" parent="1">
          <mxGeometry x="-135" y="951" width="90" height="30" as="geometry" />
        </mxCell>
        <mxCell id="HWMM1_5PJMDNuO5PTNmh-100" value="[Login success]" style="text;html=1;align=center;verticalAlign=middle;resizable=0;points=[];autosize=1;strokeColor=none;fillColor=none;fontFamily=Verdana;labelBackgroundColor=none;fontColor=#143642;rounded=1;" vertex="1" parent="1">
          <mxGeometry x="-150" y="1070" width="120" height="30" as="geometry" />
        </mxCell>
        <mxCell id="IX1f9TQ6Cx77UiE-WZsG-1" value="loop" style="shape=umlFrame;whiteSpace=wrap;html=1;pointerEvents=0;fontFamily=Verdana;labelBackgroundColor=none;fillColor=#FAE5C7;strokeColor=#0F8B8D;fontColor=#143642;rounded=1;" vertex="1" parent="1">
          <mxGeometry x="-180" y="849" width="1140" height="308" as="geometry" />
        </mxCell>
        <mxCell id="0D4HNpG1mVCTGSZK7jsU-1" value="[Login fail]" style="text;html=1;align=center;verticalAlign=middle;resizable=0;points=[];autosize=1;strokeColor=none;fillColor=none;fontFamily=Verdana;labelBackgroundColor=none;fontColor=#143642;rounded=1;" vertex="1" parent="1">
          <mxGeometry x="-170" y="884" width="90" height="30" as="geometry" />
        </mxCell>
        <mxCell id="0D4HNpG1mVCTGSZK7jsU-2" value="&lt;font style=&quot;font-size: 12px;&quot;&gt;showWrong()&lt;/font&gt;" style="html=1;verticalAlign=bottom;endArrow=open;dashed=1;endSize=8;curved=0;rounded=1;fontFamily=Verdana;labelBackgroundColor=none;strokeColor=#A8201A;fontColor=default;" edge="1" parent="1">
          <mxGeometry x="0.0027" relative="1" as="geometry">
            <mxPoint x="650" y="935" as="sourcePoint" />
            <mxPoint x="215" y="935" as="targetPoint" />
            <mxPoint as="offset" />
          </mxGeometry>
        </mxCell>
        <mxCell id="0D4HNpG1mVCTGSZK7jsU-3" value="&lt;font style=&quot;font-size: 12px;&quot;&gt;requestInputAgain()&lt;/font&gt;" style="html=1;verticalAlign=bottom;endArrow=open;dashed=1;endSize=8;curved=0;rounded=1;fontFamily=Verdana;labelBackgroundColor=none;strokeColor=#A8201A;fontColor=default;" edge="1" parent="1">
          <mxGeometry x="0.0027" relative="1" as="geometry">
            <mxPoint x="220" y="936" as="sourcePoint" />
            <mxPoint x="-31" y="936" as="targetPoint" />
            <mxPoint as="offset" />
          </mxGeometry>
        </mxCell>
        <mxCell id="HWMM1_5PJMDNuO5PTNmh-78" value="" style="endArrow=none;dashed=1;html=1;rounded=1;exitX=0;exitY=0.315;exitDx=0;exitDy=0;exitPerimeter=0;fontFamily=Verdana;labelBackgroundColor=none;strokeColor=#A8201A;fontColor=default;entryX=0.999;entryY=0.313;entryDx=0;entryDy=0;entryPerimeter=0;" edge="1" parent="1" source="HWMM1_5PJMDNuO5PTNmh-75" target="HWMM1_5PJMDNuO5PTNmh-75">
          <mxGeometry width="50" height="50" relative="1" as="geometry">
            <mxPoint x="-125" y="982.52" as="sourcePoint" />
            <mxPoint x="790" y="983" as="targetPoint" />
          </mxGeometry>
        </mxCell>
        <mxCell id="0D4HNpG1mVCTGSZK7jsU-7" value="destroy" style="html=1;align=left;spacingLeft=2;endArrow=block;rounded=1;edgeStyle=orthogonalEdgeStyle;curved=0;rounded=0;fillColor=#FAE5C7;strokeColor=#A8201A;labelBackgroundColor=none;fontColor=default;" edge="1" parent="1">
          <mxGeometry relative="1" as="geometry">
            <mxPoint x="220" y="1030" as="sourcePoint" />
            <Array as="points">
              <mxPoint x="250" y="1060" />
            </Array>
            <mxPoint x="220" y="1060" as="targetPoint" />
            <mxPoint as="offset" />
          </mxGeometry>
        </mxCell>
        <mxCell id="0D4HNpG1mVCTGSZK7jsU-9" value="&lt;font style=&quot;font-size: 12px;&quot;&gt;changeView()&lt;/font&gt;" style="html=1;verticalAlign=bottom;endArrow=open;dashed=1;endSize=8;curved=0;rounded=1;fontFamily=Verdana;labelBackgroundColor=none;strokeColor=#A8201A;fontColor=default;entryX=0.005;entryY=0.193;entryDx=0;entryDy=0;entryPerimeter=0;" edge="1" parent="1" source="HWMM1_5PJMDNuO5PTNmh-79" target="0D4HNpG1mVCTGSZK7jsU-15">
          <mxGeometry x="0.0027" relative="1" as="geometry">
            <mxPoint x="611" y="1020" as="sourcePoint" />
            <mxPoint x="540" y="1020" as="targetPoint" />
            <mxPoint as="offset" />
          </mxGeometry>
        </mxCell>
        <mxCell id="0D4HNpG1mVCTGSZK7jsU-15" value=":userInterfaceScreen" style="shape=umlLifeline;perimeter=lifelinePerimeter;whiteSpace=wrap;html=1;container=1;collapsible=0;recursiveResize=0;outlineConnect=0;rounded=1;shadow=0;comic=0;labelBackgroundColor=none;strokeWidth=1;fontFamily=Verdana;fontSize=12;align=center;fillColor=#FAE5C7;strokeColor=#0F8B8D;fontColor=#143642;" vertex="1" parent="1">
          <mxGeometry x="680" y="1007.5" width="130" height="105" as="geometry" />
        </mxCell>
        <mxCell id="0D4HNpG1mVCTGSZK7jsU-16" value="" style="html=1;points=[];perimeter=orthogonalPerimeter;rounded=1;shadow=0;comic=0;labelBackgroundColor=none;strokeWidth=1;fontFamily=Verdana;fontSize=12;align=center;fillColor=#FAE5C7;strokeColor=#0F8B8D;fontColor=#143642;" vertex="1" parent="0D4HNpG1mVCTGSZK7jsU-15">
          <mxGeometry x="60" y="57.5" width="10" height="35" as="geometry" />
        </mxCell>
        <mxCell id="0D4HNpG1mVCTGSZK7jsU-19" value="displayView()" style="html=1;align=left;spacingLeft=2;endArrow=block;rounded=1;edgeStyle=orthogonalEdgeStyle;curved=0;rounded=0;fillColor=#FAE5C7;strokeColor=#A8201A;labelBackgroundColor=none;fontColor=default;" edge="1" parent="0D4HNpG1mVCTGSZK7jsU-15">
          <mxGeometry relative="1" as="geometry">
            <mxPoint x="70" y="60" as="sourcePoint" />
            <Array as="points">
              <mxPoint x="100" y="90" />
            </Array>
            <mxPoint x="70" y="90" as="targetPoint" />
            <mxPoint as="offset" />
          </mxGeometry>
        </mxCell>
        <mxCell id="0D4HNpG1mVCTGSZK7jsU-20" value="" style="endArrow=none;dashed=1;html=1;rounded=1;exitX=-0.003;exitY=0.492;exitDx=0;exitDy=0;exitPerimeter=0;fontFamily=Verdana;labelBackgroundColor=none;strokeColor=#A8201A;fontColor=default;entryX=1.003;entryY=0.498;entryDx=0;entryDy=0;entryPerimeter=0;" edge="1" parent="1">
          <mxGeometry width="50" height="50" relative="1" as="geometry">
            <mxPoint x="-188.42000000000007" y="1392.8459999999998" as="sourcePoint" />
            <mxPoint x="958.4199999999996" y="1394.6939999999997" as="targetPoint" />
          </mxGeometry>
        </mxCell>
        <mxCell id="0D4HNpG1mVCTGSZK7jsU-21" value="alt" style="shape=umlFrame;whiteSpace=wrap;html=1;pointerEvents=0;fontFamily=Verdana;labelBackgroundColor=none;fillColor=#FAE5C7;strokeColor=#0F8B8D;fontColor=#143642;rounded=1;" vertex="1" parent="1">
          <mxGeometry x="-250" y="1169" width="1260" height="461" as="geometry" />
        </mxCell>
        <mxCell id="0D4HNpG1mVCTGSZK7jsU-22" value="[On &quot;Forgot &lt;br&gt;password&quot; &lt;br&gt;button]" style="text;html=1;align=center;verticalAlign=middle;resizable=0;points=[];autosize=1;strokeColor=none;fillColor=none;fontFamily=Verdana;labelBackgroundColor=none;fontColor=#143642;rounded=1;" vertex="1" parent="1">
          <mxGeometry x="-250" y="1210" width="90" height="60" as="geometry" />
        </mxCell>
        <mxCell id="HWMM1_5PJMDNuO5PTNmh-76" value=":SystemDb" style="shape=umlLifeline;perimeter=lifelinePerimeter;whiteSpace=wrap;html=1;container=1;collapsible=0;recursiveResize=0;outlineConnect=0;rounded=1;shadow=0;comic=0;labelBackgroundColor=none;strokeWidth=1;fontFamily=Verdana;fontSize=12;align=center;fillColor=#FAE5C7;strokeColor=#0F8B8D;fontColor=#143642;" vertex="1" parent="1">
          <mxGeometry x="840" y="750" width="100" height="850" as="geometry" />
        </mxCell>
        <mxCell id="HWMM1_5PJMDNuO5PTNmh-77" value="" style="html=1;points=[];perimeter=orthogonalPerimeter;rounded=1;shadow=0;comic=0;labelBackgroundColor=none;strokeWidth=1;fontFamily=Verdana;fontSize=12;align=center;fillColor=#FAE5C7;strokeColor=#0F8B8D;fontColor=#143642;" vertex="1" parent="HWMM1_5PJMDNuO5PTNmh-76">
          <mxGeometry x="45" y="99" width="10" height="711" as="geometry" />
        </mxCell>
        <mxCell id="HWMM1_5PJMDNuO5PTNmh-98" value="&lt;font style=&quot;font-size: 12px;&quot;&gt;InValid Account&lt;/font&gt;" style="html=1;verticalAlign=bottom;endArrow=open;dashed=1;endSize=8;curved=0;rounded=1;fontFamily=Verdana;labelBackgroundColor=none;strokeColor=#A8201A;fontColor=default;" edge="1" parent="HWMM1_5PJMDNuO5PTNmh-76">
          <mxGeometry x="0.0027" relative="1" as="geometry">
            <mxPoint x="45" y="186" as="sourcePoint" />
            <mxPoint x="-190" y="186" as="targetPoint" />
            <mxPoint as="offset" />
            <Array as="points">
              <mxPoint x="-42" y="186" />
              <mxPoint x="-164" y="186" />
            </Array>
          </mxGeometry>
        </mxCell>
        <mxCell id="0D4HNpG1mVCTGSZK7jsU-23" value=":ForgotPasswrodscreen" style="shape=umlLifeline;perimeter=lifelinePerimeter;whiteSpace=wrap;html=1;container=1;collapsible=0;recursiveResize=0;outlineConnect=0;rounded=1;shadow=0;comic=0;labelBackgroundColor=none;strokeWidth=1;fontFamily=Verdana;fontSize=12;align=center;fillColor=#FAE5C7;strokeColor=#0F8B8D;fontColor=#143642;" vertex="1" parent="1">
          <mxGeometry x="320" y="750" width="200" height="840" as="geometry" />
        </mxCell>
        <mxCell id="0D4HNpG1mVCTGSZK7jsU-24" value="" style="html=1;points=[];perimeter=orthogonalPerimeter;rounded=1;shadow=0;comic=0;labelBackgroundColor=none;strokeWidth=1;fontFamily=Verdana;fontSize=12;align=center;fillColor=#FAE5C7;strokeColor=#0F8B8D;fontColor=#143642;" vertex="1" parent="0D4HNpG1mVCTGSZK7jsU-23">
          <mxGeometry x="95" y="420" width="10" height="300" as="geometry" />
        </mxCell>
        <mxCell id="0D4HNpG1mVCTGSZK7jsU-35" value="changePass()" style="html=1;verticalAlign=bottom;endArrow=block;labelBackgroundColor=none;fontFamily=Verdana;fontSize=12;edgeStyle=elbowEdgeStyle;elbow=vertical;strokeColor=#A8201A;fontColor=default;rounded=1;entryX=1.159;entryY=0.58;entryDx=0;entryDy=0;entryPerimeter=0;" edge="1" parent="0D4HNpG1mVCTGSZK7jsU-23">
          <mxGeometry x="-0.0028" relative="1" as="geometry">
            <mxPoint x="95.00034482758605" y="460.00103448275854" as="sourcePoint" />
            <mxPoint x="331.7800000000002" y="460.16999999999985" as="targetPoint" />
            <mxPoint as="offset" />
            <Array as="points" />
          </mxGeometry>
        </mxCell>
        <mxCell id="0D4HNpG1mVCTGSZK7jsU-28" value="x" style="text;html=1;align=center;verticalAlign=middle;resizable=0;points=[];autosize=1;strokeColor=none;fillColor=none;fontColor=#143642;fontSize=37;" vertex="1" parent="1">
          <mxGeometry x="195" y="1050" width="40" height="60" as="geometry" />
        </mxCell>
        <mxCell id="0D4HNpG1mVCTGSZK7jsU-29" value="alt" style="shape=umlFrame;whiteSpace=wrap;html=1;pointerEvents=0;fontFamily=Verdana;labelBackgroundColor=none;fillColor=#FAE5C7;strokeColor=#0F8B8D;fontColor=#143642;rounded=1;" vertex="1" parent="1">
          <mxGeometry x="-135" y="1280" width="1050" height="260" as="geometry" />
        </mxCell>
        <mxCell id="0D4HNpG1mVCTGSZK7jsU-30" value="" style="endArrow=none;dashed=1;html=1;rounded=1;exitX=0;exitY=0.315;exitDx=0;exitDy=0;exitPerimeter=0;fontFamily=Verdana;labelBackgroundColor=none;strokeColor=#A8201A;fontColor=default;entryX=0.999;entryY=0.313;entryDx=0;entryDy=0;entryPerimeter=0;" edge="1" parent="1">
          <mxGeometry width="50" height="50" relative="1" as="geometry">
            <mxPoint x="-134" y="1370" as="sourcePoint" />
            <mxPoint x="915" y="1370" as="targetPoint" />
          </mxGeometry>
        </mxCell>
        <mxCell id="0D4HNpG1mVCTGSZK7jsU-31" value="[Invalid input]" style="text;html=1;align=center;verticalAlign=middle;resizable=0;points=[];autosize=1;strokeColor=none;fillColor=none;fontFamily=Verdana;labelBackgroundColor=none;fontColor=#143642;rounded=1;" vertex="1" parent="1">
          <mxGeometry x="-140" y="1320" width="110" height="30" as="geometry" />
        </mxCell>
        <mxCell id="0D4HNpG1mVCTGSZK7jsU-32" value="[Valid input]" style="text;html=1;align=center;verticalAlign=middle;resizable=0;points=[];autosize=1;strokeColor=none;fillColor=none;fontFamily=Verdana;labelBackgroundColor=none;fontColor=#143642;rounded=1;" vertex="1" parent="1">
          <mxGeometry x="-135" y="1420" width="100" height="30" as="geometry" />
        </mxCell>
        <mxCell id="0D4HNpG1mVCTGSZK7jsU-33" value="&lt;font style=&quot;font-size: 12px;&quot;&gt;InValid Account&lt;/font&gt;" style="html=1;verticalAlign=bottom;endArrow=open;dashed=1;endSize=8;curved=0;rounded=1;fontFamily=Verdana;labelBackgroundColor=none;strokeColor=#A8201A;fontColor=default;entryX=0.244;entryY=0.686;entryDx=0;entryDy=0;entryPerimeter=0;" edge="1" parent="1" target="HWMM1_5PJMDNuO5PTNmh-106">
          <mxGeometry x="0.0027" relative="1" as="geometry">
            <mxPoint x="895" y="1335.41" as="sourcePoint" />
            <mxPoint x="650" y="1335" as="targetPoint" />
            <mxPoint as="offset" />
            <Array as="points">
              <mxPoint x="808" y="1335.41" />
              <mxPoint x="686" y="1335.41" />
            </Array>
          </mxGeometry>
        </mxCell>
        <mxCell id="0D4HNpG1mVCTGSZK7jsU-34" value="checkInput()" style="html=1;verticalAlign=bottom;endArrow=block;labelBackgroundColor=none;fontFamily=Verdana;fontSize=12;edgeStyle=elbowEdgeStyle;elbow=vertical;strokeColor=#A8201A;fontColor=default;rounded=1;" edge="1" parent="1" target="HWMM1_5PJMDNuO5PTNmh-76">
          <mxGeometry x="-0.0028" relative="1" as="geometry">
            <mxPoint x="650" y="1220" as="sourcePoint" />
            <mxPoint x="889.7499999999999" y="1209.997" as="targetPoint" />
            <mxPoint as="offset" />
            <Array as="points">
              <mxPoint x="650" y="1220" />
            </Array>
          </mxGeometry>
        </mxCell>
        <mxCell id="0D4HNpG1mVCTGSZK7jsU-36" value="&lt;font style=&quot;font-size: 12px;&quot;&gt;showWrong()&lt;/font&gt;" style="html=1;verticalAlign=bottom;endArrow=open;dashed=1;endSize=8;curved=0;rounded=1;fontFamily=Verdana;labelBackgroundColor=none;strokeColor=#A8201A;fontColor=default;" edge="1" parent="1">
          <mxGeometry x="-0.003" relative="1" as="geometry">
            <mxPoint x="655" y="1334.5" as="sourcePoint" />
            <mxPoint x="420" y="1335" as="targetPoint" />
            <mxPoint as="offset" />
          </mxGeometry>
        </mxCell>
        <mxCell id="0D4HNpG1mVCTGSZK7jsU-37" value="&lt;font style=&quot;font-size: 12px;&quot;&gt;requestInputAgain()&lt;/font&gt;" style="html=1;verticalAlign=bottom;endArrow=open;dashed=1;endSize=8;curved=0;rounded=1;fontFamily=Verdana;labelBackgroundColor=none;strokeColor=#A8201A;fontColor=default;entryX=0.92;entryY=0.686;entryDx=0;entryDy=0;entryPerimeter=0;" edge="1" parent="1" target="HWMM1_5PJMDNuO5PTNmh-88">
          <mxGeometry x="0.0027" relative="1" as="geometry">
            <mxPoint x="421" y="1334.5" as="sourcePoint" />
            <mxPoint x="170" y="1334.5" as="targetPoint" />
            <mxPoint as="offset" />
          </mxGeometry>
        </mxCell>
        <mxCell id="0D4HNpG1mVCTGSZK7jsU-38" value="destroy" style="html=1;align=left;spacingLeft=2;endArrow=block;rounded=1;edgeStyle=orthogonalEdgeStyle;curved=0;rounded=0;fillColor=#FAE5C7;strokeColor=#A8201A;labelBackgroundColor=none;fontColor=default;" edge="1" parent="1">
          <mxGeometry relative="1" as="geometry">
            <mxPoint x="420" y="1419.94" as="sourcePoint" />
            <Array as="points">
              <mxPoint x="450" y="1449.94" />
            </Array>
            <mxPoint x="420" y="1449.94" as="targetPoint" />
            <mxPoint as="offset" />
          </mxGeometry>
        </mxCell>
        <mxCell id="0D4HNpG1mVCTGSZK7jsU-39" value="x" style="text;html=1;align=center;verticalAlign=middle;resizable=0;points=[];autosize=1;strokeColor=none;fillColor=none;fontColor=#143642;fontSize=37;" vertex="1" parent="1">
          <mxGeometry x="400" y="1450" width="40" height="60" as="geometry" />
        </mxCell>
        <mxCell id="0D4HNpG1mVCTGSZK7jsU-40" value="&lt;font style=&quot;font-size: 12px;&quot;&gt;changeView()&lt;/font&gt;" style="html=1;verticalAlign=bottom;endArrow=open;dashed=1;endSize=8;curved=0;rounded=1;fontFamily=Verdana;labelBackgroundColor=none;strokeColor=#A8201A;fontColor=default;" edge="1" parent="1" target="HWMM1_5PJMDNuO5PTNmh-74">
          <mxGeometry x="0.0027" relative="1" as="geometry">
            <mxPoint x="419.5" y="1460" as="sourcePoint" />
            <mxPoint x="880.5" y="1460" as="targetPoint" />
            <mxPoint as="offset" />
          </mxGeometry>
        </mxCell>
        <mxCell id="0D4HNpG1mVCTGSZK7jsU-41" value="" style="html=1;points=[];perimeter=orthogonalPerimeter;rounded=1;shadow=0;comic=0;labelBackgroundColor=none;strokeWidth=1;fontFamily=Verdana;fontSize=12;align=center;fillColor=#FAE5C7;strokeColor=#0F8B8D;fontColor=#143642;" vertex="1" parent="1">
          <mxGeometry x="210" y="1450" width="10" height="60" as="geometry" />
        </mxCell>
        <mxCell id="0D4HNpG1mVCTGSZK7jsU-42" value="displayView()" style="html=1;align=left;spacingLeft=2;endArrow=block;rounded=1;edgeStyle=orthogonalEdgeStyle;curved=0;rounded=0;fillColor=#FAE5C7;strokeColor=#A8201A;labelBackgroundColor=none;fontColor=default;" edge="1" parent="1">
          <mxGeometry x="-0.0065" relative="1" as="geometry">
            <mxPoint x="220" y="1470" as="sourcePoint" />
            <Array as="points">
              <mxPoint x="250" y="1500" />
            </Array>
            <mxPoint x="220" y="1500" as="targetPoint" />
            <mxPoint as="offset" />
          </mxGeometry>
        </mxCell>
        <mxCell id="0D4HNpG1mVCTGSZK7jsU-45" value="Loop" style="shape=umlFrame;whiteSpace=wrap;html=1;pointerEvents=0;fontFamily=Verdana;labelBackgroundColor=none;fillColor=#FAE5C7;strokeColor=#0F8B8D;fontColor=#143642;rounded=1;" vertex="1" parent="1">
          <mxGeometry x="-157" y="1179.5" width="1140" height="420.5" as="geometry" />
        </mxCell>
        <mxCell id="0D4HNpG1mVCTGSZK7jsU-46" value="[Invalid input]" style="text;html=1;align=center;verticalAlign=middle;resizable=0;points=[];autosize=1;strokeColor=none;fillColor=none;fontFamily=Verdana;labelBackgroundColor=none;fontColor=#143642;rounded=1;" vertex="1" parent="1">
          <mxGeometry x="-150" y="1225" width="110" height="30" as="geometry" />
        </mxCell>
        <mxCell id="0D4HNpG1mVCTGSZK7jsU-25" value="submit(newPassword,email)" style="html=1;verticalAlign=bottom;endArrow=block;labelBackgroundColor=none;fontFamily=Verdana;fontSize=12;edgeStyle=elbowEdgeStyle;elbow=vertical;strokeColor=#A8201A;fontColor=default;rounded=1;" edge="1" parent="1" source="HWMM1_5PJMDNuO5PTNmh-88" target="0D4HNpG1mVCTGSZK7jsU-23">
          <mxGeometry x="-0.0028" relative="1" as="geometry">
            <mxPoint y="1200" as="sourcePoint" />
            <mxPoint x="385" y="1210" as="targetPoint" />
            <mxPoint as="offset" />
            <Array as="points" />
          </mxGeometry>
        </mxCell>
      </root>
    </mxGraphModel>
  </diagram>
  <diagram id="s9Ovxmw-q2On3VqKNQBR" name="Trang-2">
    <mxGraphModel grid="1" page="1" gridSize="10" guides="1" tooltips="1" connect="1" arrows="1" fold="1" pageScale="1" pageWidth="827" pageHeight="1169" math="0" shadow="0">
      <root>
        <mxCell id="0" />
        <mxCell id="1" parent="0" />
        <mxCell id="H_MSfRuniMvfeYYg_Lk0-1" value="alt" style="shape=umlFrame;whiteSpace=wrap;html=1;pointerEvents=0;recursiveResize=0;container=1;collapsible=0;width=60;height=30;fillColor=#FAE5C7;strokeColor=#0F8B8D;shadow=0;labelBackgroundColor=none;fontColor=#143642;rounded=1;" vertex="1" parent="1">
          <mxGeometry x="-30" y="920" width="960" height="430" as="geometry" />
        </mxCell>
        <mxCell id="H_MSfRuniMvfeYYg_Lk0-2" value="[Account not found]" style="text;html=1;strokeColor=#0F8B8D;fillColor=#FAE5C7;align=center;verticalAlign=middle;whiteSpace=wrap;rounded=1;shadow=0;labelBackgroundColor=none;fontColor=#143642;" vertex="1" parent="H_MSfRuniMvfeYYg_Lk0-1">
          <mxGeometry x="10" y="40" width="110" height="30" as="geometry" />
        </mxCell>
        <mxCell id="H_MSfRuniMvfeYYg_Lk0-16" value="alt" style="shape=umlFrame;whiteSpace=wrap;html=1;pointerEvents=0;recursiveResize=0;container=1;collapsible=0;width=60;height=30;fillColor=#FAE5C7;strokeColor=#0F8B8D;shadow=0;labelBackgroundColor=none;fontColor=#143642;rounded=1;" vertex="1" parent="H_MSfRuniMvfeYYg_Lk0-1">
          <mxGeometry x="90" y="100" width="830" height="290" as="geometry" />
        </mxCell>
        <mxCell id="H_MSfRuniMvfeYYg_Lk0-17" value="[Else]" style="text;html=1;strokeColor=#0F8B8D;fillColor=#FAE5C7;align=center;verticalAlign=middle;whiteSpace=wrap;rounded=1;shadow=0;labelBackgroundColor=none;fontColor=#143642;" vertex="1" parent="H_MSfRuniMvfeYYg_Lk0-16">
          <mxGeometry x="10" y="160" width="110" height="30" as="geometry" />
        </mxCell>
        <mxCell id="H_MSfRuniMvfeYYg_Lk0-18" value="[Veryfi is OK]" style="text;html=1;strokeColor=#0F8B8D;fillColor=#FAE5C7;align=center;verticalAlign=middle;whiteSpace=wrap;rounded=1;shadow=0;labelBackgroundColor=none;fontColor=#143642;" vertex="1" parent="H_MSfRuniMvfeYYg_Lk0-16">
          <mxGeometry x="10" y="40" width="110" height="30" as="geometry" />
        </mxCell>
        <mxCell id="H_MSfRuniMvfeYYg_Lk0-19" value="Notification printer&#39;s being used" style="endArrow=open;endSize=12;dashed=1;html=1;rounded=1;fillColor=#FAE5C7;strokeColor=#A8201A;shadow=0;labelBackgroundColor=none;fontColor=default;" edge="1" parent="H_MSfRuniMvfeYYg_Lk0-16">
          <mxGeometry x="-0.028" y="-10" width="160" relative="1" as="geometry">
            <mxPoint x="575" y="60" as="sourcePoint" />
            <mxPoint x="375" y="60" as="targetPoint" />
            <mxPoint as="offset" />
          </mxGeometry>
        </mxCell>
        <mxCell id="H_MSfRuniMvfeYYg_Lk0-20" value="Valid Account" style="endArrow=open;endSize=12;dashed=1;html=1;rounded=1;fillColor=#FAE5C7;strokeColor=#A8201A;shadow=0;labelBackgroundColor=none;fontColor=default;" edge="1" parent="H_MSfRuniMvfeYYg_Lk0-16">
          <mxGeometry x="-0.0292" y="-10" width="160" relative="1" as="geometry">
            <mxPoint x="765" y="60" as="sourcePoint" />
            <mxPoint x="585" y="60" as="targetPoint" />
            <mxPoint as="offset" />
          </mxGeometry>
        </mxCell>
        <mxCell id="H_MSfRuniMvfeYYg_Lk0-21" value="Notification confirm choose printer" style="endArrow=open;endSize=12;dashed=1;html=1;rounded=1;fillColor=#FAE5C7;strokeColor=#A8201A;shadow=0;labelBackgroundColor=none;fontColor=default;" edge="1" parent="H_MSfRuniMvfeYYg_Lk0-16">
          <mxGeometry x="0.4773" y="-10" width="160" relative="1" as="geometry">
            <mxPoint x="575" y="210" as="sourcePoint" />
            <mxPoint x="135" y="210" as="targetPoint" />
            <mxPoint as="offset" />
          </mxGeometry>
        </mxCell>
        <mxCell id="H_MSfRuniMvfeYYg_Lk0-22" value="valid printer" style="endArrow=open;endSize=12;dashed=1;html=1;rounded=1;fillColor=#FAE5C7;strokeColor=#A8201A;shadow=0;labelBackgroundColor=none;fontColor=default;" edge="1" parent="H_MSfRuniMvfeYYg_Lk0-16">
          <mxGeometry x="-0.0298" y="-10" width="160" relative="1" as="geometry">
            <mxPoint x="765" y="210" as="sourcePoint" />
            <mxPoint x="585" y="210" as="targetPoint" />
            <mxPoint as="offset" />
          </mxGeometry>
        </mxCell>
        <mxCell id="H_MSfRuniMvfeYYg_Lk0-23" value="Click &quot;OK&quot;" style="edgeStyle=orthogonalEdgeStyle;rounded=1;orthogonalLoop=1;jettySize=auto;html=1;curved=0;fillColor=#FAE5C7;strokeColor=#A8201A;shadow=0;labelBackgroundColor=none;fontColor=default;" edge="1" parent="H_MSfRuniMvfeYYg_Lk0-16">
          <mxGeometry x="0.1344" y="15" relative="1" as="geometry">
            <Array as="points">
              <mxPoint x="310" y="250" />
              <mxPoint x="310" y="250" />
            </Array>
            <mxPoint as="offset" />
            <mxPoint x="135" y="250.00347826086954" as="sourcePoint" />
            <mxPoint x="365" y="249.99999999999977" as="targetPoint" />
          </mxGeometry>
        </mxCell>
        <mxCell id="H_MSfRuniMvfeYYg_Lk0-24" value="updateDatabase()" style="edgeStyle=orthogonalEdgeStyle;rounded=1;orthogonalLoop=1;jettySize=auto;html=1;curved=0;fillColor=#FAE5C7;strokeColor=#A8201A;shadow=0;labelBackgroundColor=none;fontColor=default;" edge="1" parent="H_MSfRuniMvfeYYg_Lk0-16">
          <mxGeometry x="0.1344" y="15" relative="1" as="geometry">
            <Array as="points">
              <mxPoint x="630" y="270" />
              <mxPoint x="630" y="270" />
            </Array>
            <mxPoint as="offset" />
            <mxPoint x="585" y="270" as="sourcePoint" />
            <mxPoint x="765" y="270" as="targetPoint" />
          </mxGeometry>
        </mxCell>
        <mxCell id="H_MSfRuniMvfeYYg_Lk0-25" value="savePrinter()" style="edgeStyle=orthogonalEdgeStyle;rounded=1;orthogonalLoop=1;jettySize=auto;html=1;curved=0;fillColor=#FAE5C7;strokeColor=#A8201A;shadow=0;labelBackgroundColor=none;fontColor=default;" edge="1" parent="H_MSfRuniMvfeYYg_Lk0-16">
          <mxGeometry x="0.1344" y="15" relative="1" as="geometry">
            <Array as="points">
              <mxPoint x="480" y="260" />
              <mxPoint x="480" y="260" />
            </Array>
            <mxPoint as="offset" />
            <mxPoint x="375" y="260" as="sourcePoint" />
            <mxPoint x="575" y="260" as="targetPoint" />
          </mxGeometry>
        </mxCell>
        <mxCell id="H_MSfRuniMvfeYYg_Lk0-26" value="" style="endArrow=none;dashed=1;html=1;rounded=1;exitX=0.001;exitY=0.512;exitDx=0;exitDy=0;exitPerimeter=0;entryX=1;entryY=0.512;entryDx=0;entryDy=0;entryPerimeter=0;fillColor=#FAE5C7;strokeColor=#A8201A;shadow=0;labelBackgroundColor=none;fontColor=default;" edge="1" parent="H_MSfRuniMvfeYYg_Lk0-1" source="H_MSfRuniMvfeYYg_Lk0-16" target="H_MSfRuniMvfeYYg_Lk0-16">
          <mxGeometry width="50" height="50" relative="1" as="geometry">
            <mxPoint x="500" y="150" as="sourcePoint" />
            <mxPoint x="550" y="100" as="targetPoint" />
          </mxGeometry>
        </mxCell>
        <mxCell id="rNI2VSMMBxkUZTHz3IHe-28" value="Not found" style="endArrow=open;endSize=12;dashed=1;html=1;rounded=1;fillColor=#FAE5C7;strokeColor=#A8201A;shadow=0;labelBackgroundColor=none;fontColor=default;" edge="1" parent="H_MSfRuniMvfeYYg_Lk0-1">
          <mxGeometry x="0.1282" y="-10" width="160" relative="1" as="geometry">
            <mxPoint x="443.33" y="54.92" as="sourcePoint" />
            <mxPoint x="218.99666666666698" y="54.57999999999994" as="targetPoint" />
            <mxPoint as="offset" />
            <Array as="points">
              <mxPoint x="378.33" y="54.57999999999997" />
            </Array>
          </mxGeometry>
        </mxCell>
        <mxCell id="rNI2VSMMBxkUZTHz3IHe-26" value="Not found" style="endArrow=open;endSize=12;dashed=1;html=1;rounded=1;fillColor=#FAE5C7;strokeColor=#A8201A;shadow=0;labelBackgroundColor=none;fontColor=default;" edge="1" parent="H_MSfRuniMvfeYYg_Lk0-1">
          <mxGeometry x="0.1282" y="-10" width="160" relative="1" as="geometry">
            <mxPoint x="674.5000000000005" y="39.999999999999886" as="sourcePoint" />
            <mxPoint x="460" y="39.999999999999886" as="targetPoint" />
            <mxPoint as="offset" />
            <Array as="points">
              <mxPoint x="610" y="40" />
            </Array>
          </mxGeometry>
        </mxCell>
        <mxCell id="rNI2VSMMBxkUZTHz3IHe-31" value="[Account found]" style="text;html=1;strokeColor=#0F8B8D;fillColor=#FAE5C7;align=center;verticalAlign=middle;whiteSpace=wrap;rounded=1;shadow=0;labelBackgroundColor=none;fontColor=#143642;" vertex="1" parent="H_MSfRuniMvfeYYg_Lk0-1">
          <mxGeometry x="10" y="90" width="70" height="30" as="geometry" />
        </mxCell>
        <mxCell id="H_MSfRuniMvfeYYg_Lk0-8" value=":SystemDb" style="shape=umlLifeline;perimeter=lifelinePerimeter;whiteSpace=wrap;html=1;container=1;dropTarget=0;collapsible=0;recursiveResize=0;outlineConnect=0;portConstraint=eastwest;newEdgeStyle={&quot;edgeStyle&quot;:&quot;elbowEdgeStyle&quot;,&quot;elbow&quot;:&quot;vertical&quot;,&quot;curved&quot;:0,&quot;rounded&quot;:0};fillColor=#FAE5C7;strokeColor=#0F8B8D;shadow=0;labelBackgroundColor=none;fontColor=#143642;rounded=1;" vertex="1" parent="1">
          <mxGeometry x="780" y="750" width="100" height="650" as="geometry" />
        </mxCell>
        <mxCell id="H_MSfRuniMvfeYYg_Lk0-9" value="" style="html=1;points=[[0,0,0,0,5],[0,1,0,0,-5],[1,0,0,0,5],[1,1,0,0,-5]];perimeter=orthogonalPerimeter;outlineConnect=0;targetShapes=umlLifeline;portConstraint=eastwest;newEdgeStyle={&quot;curved&quot;:0,&quot;rounded&quot;:0};fillColor=#FAE5C7;strokeColor=#0F8B8D;shadow=0;labelBackgroundColor=none;fontColor=#143642;rounded=1;" vertex="1" parent="H_MSfRuniMvfeYYg_Lk0-8">
          <mxGeometry x="45" y="120" width="10" height="460" as="geometry" />
        </mxCell>
        <mxCell id="H_MSfRuniMvfeYYg_Lk0-10" value="" style="shape=umlLifeline;perimeter=lifelinePerimeter;whiteSpace=wrap;html=1;container=1;dropTarget=0;collapsible=0;recursiveResize=0;outlineConnect=0;portConstraint=eastwest;newEdgeStyle={&quot;curved&quot;:0,&quot;rounded&quot;:0};participant=umlActor;fillColor=#FAE5C7;strokeColor=#0F8B8D;shadow=0;labelBackgroundColor=none;fontColor=#143642;rounded=1;" vertex="1" parent="1">
          <mxGeometry x="180" y="720" width="20" height="650" as="geometry" />
        </mxCell>
        <mxCell id="H_MSfRuniMvfeYYg_Lk0-11" value="" style="html=1;points=[[0,0,0,0,5],[0,1,0,0,-5],[1,0,0,0,5],[1,1,0,0,-5]];perimeter=orthogonalPerimeter;outlineConnect=0;targetShapes=umlLifeline;portConstraint=eastwest;newEdgeStyle={&quot;curved&quot;:0,&quot;rounded&quot;:0};fillColor=#FAE5C7;strokeColor=#0F8B8D;shadow=0;labelBackgroundColor=none;fontColor=#143642;rounded=1;" vertex="1" parent="H_MSfRuniMvfeYYg_Lk0-10">
          <mxGeometry x="5" y="90" width="10" height="490" as="geometry" />
        </mxCell>
        <mxCell id="H_MSfRuniMvfeYYg_Lk0-12" value="&lt;span style=&quot;font-weight: 400;&quot;&gt;User&lt;/span&gt;" style="text;align=center;fontStyle=1;verticalAlign=middle;spacingLeft=3;spacingRight=3;strokeColor=#0F8B8D;rotatable=0;points=[[0,0.5],[1,0.5]];portConstraint=eastwest;html=1;fillColor=#FAE5C7;fillStyle=auto;shadow=0;labelBackgroundColor=none;fontColor=#143642;rounded=1;" vertex="1" parent="1">
          <mxGeometry x="150" y="760" width="80" height="20" as="geometry" />
        </mxCell>
        <mxCell id="H_MSfRuniMvfeYYg_Lk0-13" value="LoginButton()" style="edgeStyle=orthogonalEdgeStyle;rounded=1;orthogonalLoop=1;jettySize=auto;html=1;curved=0;fillColor=#FAE5C7;strokeColor=#A8201A;shadow=0;labelBackgroundColor=none;fontColor=default;entryX=0.5;entryY=0.02;entryDx=0;entryDy=0;entryPerimeter=0;" edge="1" parent="1" source="H_MSfRuniMvfeYYg_Lk0-11" target="rNI2VSMMBxkUZTHz3IHe-19">
          <mxGeometry x="0.0193" y="10" relative="1" as="geometry">
            <mxPoint x="194" y="830" as="sourcePoint" />
            <mxPoint x="414" y="860" as="targetPoint" />
            <Array as="points">
              <mxPoint x="305" y="850" />
            </Array>
            <mxPoint as="offset" />
          </mxGeometry>
        </mxCell>
        <mxCell id="H_MSfRuniMvfeYYg_Lk0-14" value=":PrintController" style="shape=umlLifeline;perimeter=lifelinePerimeter;whiteSpace=wrap;html=1;container=1;dropTarget=0;collapsible=0;recursiveResize=0;outlineConnect=0;portConstraint=eastwest;newEdgeStyle={&quot;edgeStyle&quot;:&quot;elbowEdgeStyle&quot;,&quot;elbow&quot;:&quot;vertical&quot;,&quot;curved&quot;:0,&quot;rounded&quot;:0};fillColor=#FAE5C7;strokeColor=#0F8B8D;shadow=0;labelBackgroundColor=none;fontColor=#143642;rounded=1;" vertex="1" parent="1">
          <mxGeometry x="590" y="750" width="100" height="650" as="geometry" />
        </mxCell>
        <mxCell id="H_MSfRuniMvfeYYg_Lk0-15" value="" style="html=1;points=[[0,0,0,0,5],[0,1,0,0,-5],[1,0,0,0,5],[1,1,0,0,-5]];perimeter=orthogonalPerimeter;outlineConnect=0;targetShapes=umlLifeline;portConstraint=eastwest;newEdgeStyle={&quot;curved&quot;:0,&quot;rounded&quot;:0};fillColor=#FAE5C7;strokeColor=#0F8B8D;shadow=0;labelBackgroundColor=none;fontColor=#143642;rounded=1;" vertex="1" parent="H_MSfRuniMvfeYYg_Lk0-14">
          <mxGeometry x="45" y="100" width="10" height="480" as="geometry" />
        </mxCell>
        <mxCell id="rNI2VSMMBxkUZTHz3IHe-18" value="PrintScreen" style="shape=umlLifeline;perimeter=lifelinePerimeter;whiteSpace=wrap;html=1;container=1;dropTarget=0;collapsible=0;recursiveResize=0;outlineConnect=0;portConstraint=eastwest;newEdgeStyle={&quot;edgeStyle&quot;:&quot;elbowEdgeStyle&quot;,&quot;elbow&quot;:&quot;vertical&quot;,&quot;curved&quot;:0,&quot;rounded&quot;:0};fillColor=#FAE5C7;strokeColor=#0F8B8D;shadow=0;labelBackgroundColor=none;fontColor=#143642;rounded=1;" vertex="1" parent="1">
          <mxGeometry x="370" y="750" width="100" height="650" as="geometry" />
        </mxCell>
        <mxCell id="rNI2VSMMBxkUZTHz3IHe-19" value="" style="html=1;points=[[0,0,0,0,5],[0,1,0,0,-5],[1,0,0,0,5],[1,1,0,0,-5]];perimeter=orthogonalPerimeter;outlineConnect=0;targetShapes=umlLifeline;portConstraint=eastwest;newEdgeStyle={&quot;curved&quot;:0,&quot;rounded&quot;:0};fillColor=#FAE5C7;strokeColor=#0F8B8D;shadow=0;labelBackgroundColor=none;fontColor=#143642;rounded=1;" vertex="1" parent="rNI2VSMMBxkUZTHz3IHe-18">
          <mxGeometry x="45" y="90" width="10" height="490" as="geometry" />
        </mxCell>
        <mxCell id="rNI2VSMMBxkUZTHz3IHe-21" value="verifyAccount(info)" style="edgeStyle=orthogonalEdgeStyle;rounded=1;orthogonalLoop=1;jettySize=auto;html=1;curved=0;fillColor=#FAE5C7;strokeColor=#A8201A;shadow=0;labelBackgroundColor=none;fontColor=default;" edge="1" parent="1" source="H_MSfRuniMvfeYYg_Lk0-15" target="H_MSfRuniMvfeYYg_Lk0-9">
          <mxGeometry x="0.0555" y="10" relative="1" as="geometry">
            <Array as="points">
              <mxPoint x="740" y="900" />
              <mxPoint x="820" y="901" />
            </Array>
            <mxPoint as="offset" />
            <mxPoint x="655" y="899.9985714285715" as="sourcePoint" />
            <mxPoint x="835" y="899.9985714285715" as="targetPoint" />
          </mxGeometry>
        </mxCell>
        <mxCell id="rNI2VSMMBxkUZTHz3IHe-22" value="login()" style="edgeStyle=orthogonalEdgeStyle;rounded=1;orthogonalLoop=1;jettySize=auto;html=1;curved=0;fillColor=#FAE5C7;strokeColor=#A8201A;shadow=0;labelBackgroundColor=none;fontColor=default;" edge="1" parent="1">
          <mxGeometry x="0.1351" y="15" relative="1" as="geometry">
            <Array as="points">
              <mxPoint x="460" y="870" />
              <mxPoint x="460" y="870" />
            </Array>
            <mxPoint as="offset" />
            <mxPoint x="425" y="870" as="sourcePoint" />
            <mxPoint x="635" y="870" as="targetPoint" />
          </mxGeometry>
        </mxCell>
        <mxCell id="rNI2VSMMBxkUZTHz3IHe-23" value="return" style="endArrow=open;endSize=12;dashed=1;html=1;rounded=1;fillColor=#FAE5C7;strokeColor=#A8201A;shadow=0;labelBackgroundColor=none;fontColor=default;" edge="1" parent="1">
          <mxGeometry x="0.1282" y="-10" width="160" relative="1" as="geometry">
            <mxPoint x="840" y="1300" as="sourcePoint" />
            <mxPoint x="655" y="1300" as="targetPoint" />
            <mxPoint as="offset" />
          </mxGeometry>
        </mxCell>
        <mxCell id="rNI2VSMMBxkUZTHz3IHe-24" value="" style="endArrow=none;dashed=1;html=1;rounded=1;exitX=0;exitY=0.186;exitDx=0;exitDy=0;exitPerimeter=0;fillColor=#FAE5C7;strokeColor=#A8201A;shadow=0;labelBackgroundColor=none;fontColor=default;entryX=0.999;entryY=0.186;entryDx=0;entryDy=0;entryPerimeter=0;" edge="1" parent="1" source="H_MSfRuniMvfeYYg_Lk0-1" target="H_MSfRuniMvfeYYg_Lk0-1">
          <mxGeometry width="50" height="50" relative="1" as="geometry">
            <mxPoint x="71" y="1158" as="sourcePoint" />
            <mxPoint x="900" y="1158" as="targetPoint" />
          </mxGeometry>
        </mxCell>
        <mxCell id="rNI2VSMMBxkUZTHz3IHe-25" value="Not found" style="endArrow=open;endSize=12;dashed=1;html=1;rounded=1;fillColor=#FAE5C7;strokeColor=#A8201A;shadow=0;labelBackgroundColor=none;fontColor=default;" edge="1" parent="1" source="H_MSfRuniMvfeYYg_Lk0-9" target="H_MSfRuniMvfeYYg_Lk0-15">
          <mxGeometry x="0.1282" y="-10" width="160" relative="1" as="geometry">
            <mxPoint x="405" y="960" as="sourcePoint" />
            <mxPoint x="220" y="960" as="targetPoint" />
            <mxPoint as="offset" />
            <Array as="points">
              <mxPoint x="780" y="950" />
            </Array>
          </mxGeometry>
        </mxCell>
        <mxCell id="rNI2VSMMBxkUZTHz3IHe-30" value="Not found" style="endArrow=open;endSize=12;dashed=1;html=1;rounded=1;fillColor=#FAE5C7;strokeColor=#A8201A;shadow=0;labelBackgroundColor=none;fontColor=default;" edge="1" parent="1">
          <mxGeometry x="0.1282" y="-10" width="160" relative="1" as="geometry">
            <mxPoint x="660" y="995" as="sourcePoint" />
            <mxPoint x="445" y="995" as="targetPoint" />
            <mxPoint as="offset" />
            <Array as="points">
              <mxPoint x="595" y="994.66" />
            </Array>
          </mxGeometry>
        </mxCell>
      </root>
    </mxGraphModel>
  </diagram>
  <diagram id="YpHdoZNcTiLu8WJfaTtQ" name="Trang-3">
    <mxGraphModel grid="1" page="1" gridSize="10" guides="1" tooltips="1" connect="1" arrows="1" fold="1" pageScale="1" pageWidth="827" pageHeight="1169" math="0" shadow="0">
      <root>
        <mxCell id="0" />
        <mxCell id="1" parent="0" />
        <mxCell id="6RMZ_6NtuEJZeizr6bmb-1" value=":userController" style="shape=umlLifeline;perimeter=lifelinePerimeter;whiteSpace=wrap;html=1;container=1;collapsible=0;recursiveResize=0;outlineConnect=0;rounded=1;shadow=0;comic=0;labelBackgroundColor=none;strokeWidth=1;fontFamily=Verdana;fontSize=12;align=center;fillColor=#FAE5C7;strokeColor=#0F8B8D;fontColor=#143642;" vertex="1" parent="1">
          <mxGeometry x="365" y="740" width="200" height="620" as="geometry" />
        </mxCell>
        <mxCell id="6RMZ_6NtuEJZeizr6bmb-2" value="CheckvalidInput()" style="html=1;verticalAlign=bottom;endArrow=block;labelBackgroundColor=none;fontFamily=Verdana;fontSize=12;edgeStyle=elbowEdgeStyle;elbow=vertical;movable=1;resizable=1;rotatable=1;deletable=1;editable=1;locked=0;connectable=1;strokeColor=#A8201A;fontColor=default;rounded=1;" edge="1" parent="6RMZ_6NtuEJZeizr6bmb-1">
          <mxGeometry x="-0.0746" y="5" relative="1" as="geometry">
            <mxPoint x="105" y="260" as="sourcePoint" />
            <mxPoint x="370" y="260.1333333333334" as="targetPoint" />
            <mxPoint as="offset" />
          </mxGeometry>
        </mxCell>
        <mxCell id="6RMZ_6NtuEJZeizr6bmb-3" value="" style="html=1;points=[];perimeter=orthogonalPerimeter;rounded=1;shadow=0;comic=0;labelBackgroundColor=none;strokeWidth=1;fontFamily=Verdana;fontSize=12;align=center;fillColor=#FAE5C7;strokeColor=#0F8B8D;fontColor=#143642;" vertex="1" parent="6RMZ_6NtuEJZeizr6bmb-1">
          <mxGeometry x="95" y="103" width="10" height="467" as="geometry" />
        </mxCell>
        <mxCell id="6RMZ_6NtuEJZeizr6bmb-4" value="alt" style="shape=umlFrame;whiteSpace=wrap;html=1;pointerEvents=0;fontFamily=Verdana;labelBackgroundColor=none;fillColor=#FAE5C7;strokeColor=#0F8B8D;fontColor=#143642;rounded=1;" vertex="1" parent="1">
          <mxGeometry x="-160" y="920" width="980" height="360" as="geometry" />
        </mxCell>
        <mxCell id="6RMZ_6NtuEJZeizr6bmb-5" value=": Login-ForgotpasswordScreen" style="shape=umlLifeline;perimeter=lifelinePerimeter;whiteSpace=wrap;html=1;container=1;collapsible=0;recursiveResize=0;outlineConnect=0;rounded=1;shadow=0;comic=0;labelBackgroundColor=none;strokeWidth=1;fontFamily=Verdana;fontSize=12;align=center;movable=1;resizable=1;rotatable=1;deletable=1;editable=1;locked=0;connectable=1;fillColor=#FAE5C7;strokeColor=#0F8B8D;fontColor=#143642;" vertex="1" parent="1">
          <mxGeometry x="120" y="740" width="187" height="620" as="geometry" />
        </mxCell>
        <mxCell id="6RMZ_6NtuEJZeizr6bmb-6" value=":SystemDb" style="shape=umlLifeline;perimeter=lifelinePerimeter;whiteSpace=wrap;html=1;container=1;collapsible=0;recursiveResize=0;outlineConnect=0;rounded=1;shadow=0;comic=0;labelBackgroundColor=none;strokeWidth=1;fontFamily=Verdana;fontSize=12;align=center;fillColor=#FAE5C7;strokeColor=#0F8B8D;fontColor=#143642;" vertex="1" parent="6RMZ_6NtuEJZeizr6bmb-5">
          <mxGeometry x="570" width="100" height="620" as="geometry" />
        </mxCell>
        <mxCell id="6RMZ_6NtuEJZeizr6bmb-7" value="" style="html=1;points=[];perimeter=orthogonalPerimeter;rounded=1;shadow=0;comic=0;labelBackgroundColor=none;strokeWidth=1;fontFamily=Verdana;fontSize=12;align=center;fillColor=#FAE5C7;strokeColor=#0F8B8D;fontColor=#143642;" vertex="1" parent="6RMZ_6NtuEJZeizr6bmb-6">
          <mxGeometry x="45" y="110" width="10" height="460" as="geometry" />
        </mxCell>
        <mxCell id="6RMZ_6NtuEJZeizr6bmb-8" value="" style="html=1;points=[];perimeter=orthogonalPerimeter;rounded=1;shadow=0;comic=0;labelBackgroundColor=none;strokeWidth=1;fontFamily=Verdana;fontSize=12;align=center;fillColor=#FAE5C7;strokeColor=#0F8B8D;fontColor=#143642;" vertex="1" parent="6RMZ_6NtuEJZeizr6bmb-5">
          <mxGeometry x="90" y="100" width="10" height="60" as="geometry" />
        </mxCell>
        <mxCell id="6RMZ_6NtuEJZeizr6bmb-9" value="&lt;font&gt;Notificantion to confirm these changes&lt;/font&gt;" style="text;html=1;align=center;verticalAlign=middle;resizable=0;points=[];autosize=1;strokeColor=none;fillColor=none;fontFamily=Verdana;labelBackgroundColor=none;fontColor=#143642;rounded=1;" vertex="1" parent="6RMZ_6NtuEJZeizr6bmb-5">
          <mxGeometry x="-35" y="310" width="260" height="30" as="geometry" />
        </mxCell>
        <mxCell id="6RMZ_6NtuEJZeizr6bmb-10" value="&lt;font style=&quot;font-size: 12px;&quot;&gt;Return all info system configuraiton&lt;/font&gt;" style="html=1;verticalAlign=bottom;endArrow=open;dashed=1;endSize=8;curved=0;rounded=1;fontFamily=Verdana;labelBackgroundColor=none;strokeColor=#A8201A;fontColor=default;" edge="1" parent="6RMZ_6NtuEJZeizr6bmb-5">
          <mxGeometry relative="1" as="geometry">
            <mxPoint x="342" y="170" as="sourcePoint" />
            <mxPoint x="78" y="170" as="targetPoint" />
          </mxGeometry>
        </mxCell>
        <mxCell id="6RMZ_6NtuEJZeizr6bmb-11" value="SPSO" style="shape=umlLifeline;perimeter=lifelinePerimeter;whiteSpace=wrap;html=1;container=1;collapsible=0;recursiveResize=0;outlineConnect=0;rounded=1;shadow=0;comic=0;labelBackgroundColor=none;strokeWidth=1;fontFamily=Verdana;fontSize=12;align=center;fillColor=#FAE5C7;strokeColor=#0F8B8D;fontColor=#143642;" vertex="1" parent="1">
          <mxGeometry x="-80" y="740" width="100" height="620" as="geometry" />
        </mxCell>
        <mxCell id="6RMZ_6NtuEJZeizr6bmb-12" value="" style="html=1;points=[];perimeter=orthogonalPerimeter;rounded=1;shadow=0;comic=0;labelBackgroundColor=none;strokeWidth=1;fontFamily=Verdana;fontSize=12;align=center;fillColor=#FAE5C7;strokeColor=#0F8B8D;fontColor=#143642;" vertex="1" parent="6RMZ_6NtuEJZeizr6bmb-11">
          <mxGeometry x="45" y="100" width="10" height="470" as="geometry" />
        </mxCell>
        <mxCell id="6RMZ_6NtuEJZeizr6bmb-13" value="onViewLogin()" style="html=1;verticalAlign=bottom;endArrow=block;entryX=0;entryY=0;labelBackgroundColor=none;fontFamily=Verdana;fontSize=12;edgeStyle=elbowEdgeStyle;elbow=vertical;exitX=0.924;exitY=-0.001;exitDx=0;exitDy=0;exitPerimeter=0;strokeColor=#A8201A;fontColor=default;rounded=1;" edge="1" parent="1" source="6RMZ_6NtuEJZeizr6bmb-12" target="6RMZ_6NtuEJZeizr6bmb-8">
          <mxGeometry relative="1" as="geometry">
            <mxPoint x="-20" y="840" as="sourcePoint" />
          </mxGeometry>
        </mxCell>
        <mxCell id="6RMZ_6NtuEJZeizr6bmb-14" value="[Valid input]" style="text;html=1;align=center;verticalAlign=middle;resizable=0;points=[];autosize=1;strokeColor=none;fillColor=none;fontFamily=Verdana;labelBackgroundColor=none;fontColor=#143642;rounded=1;" vertex="1" parent="1">
          <mxGeometry x="-135" y="1080" width="100" height="30" as="geometry" />
        </mxCell>
        <mxCell id="6RMZ_6NtuEJZeizr6bmb-15" value="&lt;font style=&quot;font-size: 12px;&quot;&gt;Valid input&lt;/font&gt;" style="html=1;verticalAlign=bottom;endArrow=open;dashed=1;endSize=8;curved=0;rounded=1;fontFamily=Verdana;labelBackgroundColor=none;strokeColor=#A8201A;fontColor=default;" edge="1" parent="1" target="6RMZ_6NtuEJZeizr6bmb-3">
          <mxGeometry x="0.0027" relative="1" as="geometry">
            <mxPoint x="732.5" y="1080.0000000000002" as="sourcePoint" />
            <mxPoint x="480" y="1080" as="targetPoint" />
            <mxPoint as="offset" />
          </mxGeometry>
        </mxCell>
        <mxCell id="6RMZ_6NtuEJZeizr6bmb-16" value="Click &quot;Save changes&quot;" style="html=1;verticalAlign=bottom;endArrow=block;labelBackgroundColor=none;fontFamily=Verdana;fontSize=12;edgeStyle=elbowEdgeStyle;elbow=vertical;strokeColor=#A8201A;fontColor=default;rounded=1;" edge="1" parent="1" source="6RMZ_6NtuEJZeizr6bmb-12" target="6RMZ_6NtuEJZeizr6bmb-3">
          <mxGeometry x="0.0044" relative="1" as="geometry">
            <mxPoint x="-20" y="980" as="sourcePoint" />
            <mxPoint x="440" y="980" as="targetPoint" />
            <Array as="points">
              <mxPoint y="980" />
            </Array>
            <mxPoint as="offset" />
          </mxGeometry>
        </mxCell>
        <mxCell id="6RMZ_6NtuEJZeizr6bmb-17" value="Click &quot;Ok&quot;" style="html=1;verticalAlign=bottom;endArrow=block;labelBackgroundColor=none;fontFamily=Verdana;fontSize=12;edgeStyle=elbowEdgeStyle;elbow=vertical;strokeColor=#A8201A;fontColor=default;rounded=1;" edge="1" parent="1">
          <mxGeometry x="0.0044" relative="1" as="geometry">
            <mxPoint x="-25" y="1120" as="sourcePoint" />
            <mxPoint x="460" y="1120" as="targetPoint" />
            <Array as="points" />
            <mxPoint as="offset" />
          </mxGeometry>
        </mxCell>
        <mxCell id="6RMZ_6NtuEJZeizr6bmb-18" value="UpdateChanges()" style="html=1;verticalAlign=bottom;endArrow=block;labelBackgroundColor=none;fontFamily=Verdana;fontSize=12;edgeStyle=elbowEdgeStyle;elbow=vertical;strokeColor=#A8201A;fontColor=default;rounded=1;" edge="1" parent="1">
          <mxGeometry x="0.0044" relative="1" as="geometry">
            <mxPoint x="470" y="1130" as="sourcePoint" />
            <mxPoint x="735" y="1130" as="targetPoint" />
            <Array as="points">
              <mxPoint x="480" y="1130" />
            </Array>
            <mxPoint as="offset" />
          </mxGeometry>
        </mxCell>
        <mxCell id="6RMZ_6NtuEJZeizr6bmb-19" value="" style="html=1;verticalAlign=bottom;endArrow=open;dashed=1;endSize=8;curved=0;rounded=1;fontFamily=Verdana;labelBackgroundColor=none;strokeColor=#A8201A;fontColor=default;" edge="1" parent="1" source="6RMZ_6NtuEJZeizr6bmb-3">
          <mxGeometry relative="1" as="geometry">
            <mxPoint x="440" y="1080" as="sourcePoint" />
            <mxPoint x="-25" y="1080" as="targetPoint" />
            <Array as="points">
              <mxPoint x="345.5" y="1080" />
            </Array>
          </mxGeometry>
        </mxCell>
        <mxCell id="6RMZ_6NtuEJZeizr6bmb-20" value="submit(some changes)" style="html=1;verticalAlign=bottom;endArrow=block;labelBackgroundColor=none;fontFamily=Verdana;fontSize=12;edgeStyle=elbowEdgeStyle;elbow=vertical;strokeColor=#A8201A;fontColor=default;rounded=1;" edge="1" parent="1" source="6RMZ_6NtuEJZeizr6bmb-12">
          <mxGeometry x="0.0035" relative="1" as="geometry">
            <mxPoint x="-20" y="950" as="sourcePoint" />
            <mxPoint x="460.07" y="950" as="targetPoint" />
            <Array as="points">
              <mxPoint x="210" y="950" />
            </Array>
            <mxPoint as="offset" />
          </mxGeometry>
        </mxCell>
        <mxCell id="6RMZ_6NtuEJZeizr6bmb-21" value="alt" style="shape=umlFrame;whiteSpace=wrap;html=1;pointerEvents=0;fontFamily=Verdana;labelBackgroundColor=none;fillColor=#FAE5C7;strokeColor=#0F8B8D;fontColor=#143642;rounded=1;" vertex="1" parent="1">
          <mxGeometry x="-130" y="1020" width="910" height="220" as="geometry" />
        </mxCell>
        <mxCell id="6RMZ_6NtuEJZeizr6bmb-22" value="&lt;font style=&quot;font-size: 12px;&quot;&gt;Notification success update&lt;/font&gt;" style="html=1;verticalAlign=bottom;endArrow=open;dashed=1;endSize=8;curved=0;rounded=1;fontFamily=Verdana;labelBackgroundColor=none;strokeColor=#A8201A;fontColor=default;" edge="1" parent="1" source="6RMZ_6NtuEJZeizr6bmb-7">
          <mxGeometry x="0.3553" relative="1" as="geometry">
            <mxPoint x="460" y="1150" as="sourcePoint" />
            <mxPoint x="-25" y="1150" as="targetPoint" />
            <mxPoint as="offset" />
          </mxGeometry>
        </mxCell>
        <mxCell id="6RMZ_6NtuEJZeizr6bmb-23" value="" style="endArrow=none;dashed=1;html=1;rounded=1;exitX=0.003;exitY=0.555;exitDx=0;exitDy=0;exitPerimeter=0;entryX=1;entryY=0.533;entryDx=0;entryDy=0;entryPerimeter=0;fontFamily=Verdana;labelBackgroundColor=none;strokeColor=#A8201A;fontColor=default;" edge="1" parent="1">
          <mxGeometry width="50" height="50" relative="1" as="geometry">
            <mxPoint x="-130" y="1183.52" as="sourcePoint" />
            <mxPoint x="777.27" y="1180" as="targetPoint" />
          </mxGeometry>
        </mxCell>
        <mxCell id="6RMZ_6NtuEJZeizr6bmb-24" value="&lt;font style=&quot;font-size: 12px;&quot;&gt;Invalid input&lt;/font&gt;" style="html=1;verticalAlign=bottom;endArrow=open;dashed=1;endSize=8;curved=0;rounded=1;fontFamily=Verdana;labelBackgroundColor=none;strokeColor=#A8201A;fontColor=default;" edge="1" parent="1">
          <mxGeometry relative="1" as="geometry">
            <mxPoint x="732.5" y="1210.0000000000002" as="sourcePoint" />
            <mxPoint x="467.49736842105244" y="1210.0000000000002" as="targetPoint" />
          </mxGeometry>
        </mxCell>
        <mxCell id="6RMZ_6NtuEJZeizr6bmb-25" value="&lt;font style=&quot;font-size: 12px;&quot;&gt;Show Error Input&lt;/font&gt;" style="html=1;verticalAlign=bottom;endArrow=open;dashed=1;endSize=8;curved=0;rounded=1;fontFamily=Verdana;labelBackgroundColor=none;strokeColor=#A8201A;fontColor=default;" edge="1" parent="1" target="6RMZ_6NtuEJZeizr6bmb-12">
          <mxGeometry relative="1" as="geometry">
            <mxPoint x="454.76" y="1210" as="sourcePoint" />
            <mxPoint x="-20" y="1213" as="targetPoint" />
          </mxGeometry>
        </mxCell>
        <mxCell id="6RMZ_6NtuEJZeizr6bmb-26" value="[Invalid input]" style="text;html=1;align=center;verticalAlign=middle;resizable=0;points=[];autosize=1;strokeColor=none;fillColor=none;fontFamily=Verdana;labelBackgroundColor=none;fontColor=#143642;rounded=1;" vertex="1" parent="1">
          <mxGeometry x="-140" y="1200" width="110" height="30" as="geometry" />
        </mxCell>
        <mxCell id="6RMZ_6NtuEJZeizr6bmb-27" value="[button=&lt;br&gt;&quot;Forgot pasword&quot;]" style="text;html=1;align=center;verticalAlign=middle;resizable=0;points=[];autosize=1;strokeColor=none;fillColor=none;fontFamily=Verdana;labelBackgroundColor=none;fontColor=#143642;rounded=1;" vertex="1" parent="1">
          <mxGeometry x="-157" y="950" width="128" height="41" as="geometry" />
        </mxCell>
        <mxCell id="6RMZ_6NtuEJZeizr6bmb-28" value="login(userName,passWord)" style="html=1;verticalAlign=bottom;endArrow=block;labelBackgroundColor=none;fontFamily=Verdana;fontSize=12;edgeStyle=elbowEdgeStyle;elbow=vertical;strokeColor=#A8201A;fontColor=default;rounded=1;" edge="1" parent="1" source="6RMZ_6NtuEJZeizr6bmb-8" target="6RMZ_6NtuEJZeizr6bmb-1">
          <mxGeometry x="-0.0725" relative="1" as="geometry">
            <mxPoint x="460" y="860.34" as="sourcePoint" />
            <mxPoint x="725" y="860.0033333333334" as="targetPoint" />
            <mxPoint as="offset" />
            <Array as="points">
              <mxPoint x="334" y="870" />
              <mxPoint x="560" y="850" />
            </Array>
          </mxGeometry>
        </mxCell>
        <mxCell id="6RMZ_6NtuEJZeizr6bmb-29" value="checkInput(userName,passWord)" style="html=1;verticalAlign=bottom;endArrow=block;labelBackgroundColor=none;fontFamily=Verdana;fontSize=12;edgeStyle=elbowEdgeStyle;elbow=vertical;strokeColor=#A8201A;fontColor=default;rounded=1;" edge="1" parent="1" target="6RMZ_6NtuEJZeizr6bmb-7">
          <mxGeometry x="-0.0725" relative="1" as="geometry">
            <mxPoint x="469" y="879" as="sourcePoint" />
            <mxPoint x="713" y="879" as="targetPoint" />
            <mxPoint as="offset" />
            <Array as="points">
              <mxPoint x="583" y="879" />
              <mxPoint x="809" y="859" />
            </Array>
          </mxGeometry>
        </mxCell>
        <mxCell id="6RMZ_6NtuEJZeizr6bmb-30" value="submit(userName,passWord)" style="html=1;verticalAlign=bottom;endArrow=block;labelBackgroundColor=none;fontFamily=Verdana;fontSize=12;edgeStyle=elbowEdgeStyle;elbow=vertical;strokeColor=#A8201A;fontColor=default;rounded=1;" edge="1" parent="1" source="6RMZ_6NtuEJZeizr6bmb-11" target="6RMZ_6NtuEJZeizr6bmb-8">
          <mxGeometry relative="1" as="geometry">
            <mxPoint x="-21" y="869.41" as="sourcePoint" />
            <mxPoint x="195" y="869" as="targetPoint" />
          </mxGeometry>
        </mxCell>
        <mxCell id="6RMZ_6NtuEJZeizr6bmb-31" value="verifyAccount(userName,passWord)" style="html=1;verticalAlign=bottom;endArrow=block;labelBackgroundColor=none;fontFamily=Verdana;fontSize=12;edgeStyle=elbowEdgeStyle;elbow=vertical;strokeColor=#A8201A;fontColor=default;rounded=1;" edge="1" parent="1">
          <mxGeometry x="-0.0725" relative="1" as="geometry">
            <mxPoint x="488" y="940" as="sourcePoint" />
            <mxPoint x="754" y="940" as="targetPoint" />
            <mxPoint as="offset" />
            <Array as="points">
              <mxPoint x="602" y="940" />
              <mxPoint x="828" y="920" />
            </Array>
          </mxGeometry>
        </mxCell>
      </root>
    </mxGraphModel>
  </diagram>
</mxfile>
